<?xml version="1.0" encoding="utf-8"?>
<!-- Generator: Adobe Illustrator 16.0.0, SVG Export Plug-In . SVG Version: 6.00 Build 0)  -->
<!DOCTYPE svg PUBLIC "-//W3C//DTD SVG 1.1//EN" "http://www.w3.org/Graphics/SVG/1.1/DTD/svg11.dtd">
<svg version="1.1" id="Calque_1" xmlns="http://www.w3.org/2000/svg" xmlns:xlink="http://www.w3.org/1999/xlink" x="0px" y="0px"
	 width="880px" height="376px" viewBox="0 0 880 376" enable-background="new 0 0 880 376" xml:space="preserve">
<linearGradient id="SVGID_1_" gradientUnits="userSpaceOnUse" x1="35.4424" y1="188.0381" x2="844.957" y2="188.0381">
	<stop  offset="0" style="stop-color:#FFFD83"/>
	<stop  offset="1" style="stop-color:#42C4A3"/>
</linearGradient>
<polygon fill="url(#SVGID_1_)" points="35.442,340.228 220.33,180.697 289.291,220.854 354.253,161.723 399.226,161.723 
	476.178,35.848 597.104,190.729 660.066,136.066 844.957,330.193 758.009,265.484 772.271,325.105 735.026,247.634 656.07,166.186 
	588.11,238.705 609.098,321.265 547.138,254.33 446.195,310.107 536.745,201.421 569.121,213.045 477.178,86.594 371.891,259.908 
	351.341,215.364 254.308,324.617 266.302,255.437 219.33,216.39 "/>
<rect x="332.141" y="315.579" fill="none" width="290.789" height="93.421"/>
<text transform="matrix(1 0 0 1 332.1406 387.8774)" display="none" fill="#303644" font-family="'Carosello-Regular'" font-size="100">santour</text>
<rect x="332.141" y="315.579" fill="none" width="290.789" height="93.421"/>
<text transform="matrix(1 0 0 1 332.1406 387.8774)" display="none" fill="#42C4A3" font-family="'Carosello-Regular'" font-size="100">santour</text>
</svg>
